#!OML:ASF F:\VICON\USERDATA\INSTALL\Justin_Nancy\Justin_Nancy.ASF
:FULLY-SPECIFIED
:DEGREES
127
root 0.888417 17.3501 -11.2819 -1.84839 2.03754 5.43153
lowerback 6.17183 -1.05366 -5.80512
upperback 0.955647 -1.75903 1.06678
thorax -2.26363 -0.830371 4.50804
lowerneck -15.0234 -2.78829 -9.79403
upperneck 23.364 -2.34661 3.82051
head 10.1039 -1.51401 2.68577
rclavicle 1.56543e-014 1.82882e-014
rhumerus -35.3288 -20.028 -76.0189
rradius 26.0027
rwrist 11.6002
rhand -16.7355 13.5177
rfingers 7.12502
rthumb 9.49056 -16.2486
lclavicle 1.56543e-014 1.82882e-014
lhumerus -23.5293 5.37366 85.878
lradius 28.7132
lwrist -8.42585
lhand -13.608 30.8195
lfingers 7.12502
lthumb 12.5071 60.4252
rfemur -29.854 -4.42787 15.1592
rtibia 54.1279
rfoot -6.23279 -12.5692
rtoes -3.42085
lfemur -4.63812 0.0238695 -30.7925
ltibia 27.9286
lfoot -16.2451 1.13171
ltoes 2.78668
128
root 0.881341 17.3552 -11.1507 -1.61528 2.12014 5.43062
lowerback 6.02629 -1.03266 -5.79514
upperback 0.952341 -1.72232 1.03785
thorax -2.19128 -0.8145 4.4653
lowerneck -15.3944 -2.84915 -9.62137
upperneck 23.4718 -2.43252 3.79818
head 10.2167 -1.53971 2.63722
rclavicle -1.30204e-014 0
rhumerus -35.5352 -20.5329 -75.833
rradius 25.7681
rwrist 12.2136
rhand -16.692 13.7784
rfingers 7.12502
rthumb 9.53255 -15.986
lclavicle -1.30204e-014 0
lhumerus -22.9332 4.49131 86.0746
lradius 28.7215
lwrist -6.55241
lhand -15.1471 29.0728
lfingers 7.12502
lthumb 11.0229 58.7634
rfemur -29.9106 -4.07569 15.1789
rtibia 51.115
rfoot -5.97218 -13.1469
rtoes -1.81717
lfemur -4.20418 0.0606462 -30.7499
ltibia 27.5904
lfoot -16.4319 1.05484
ltoes 3.34148
129
root 0.874227 17.3544 -11.0211 -1.32323 2.19775 5.59449
lowerback 5.93103 -0.995828 -6.04002
upperback 0.772157 -1.6878 1.0406
thorax -2.32188 -0.786579 4.60466
lowerneck -15.1189 -2.92529 -9.57414
upperneck 23.331 -2.57206 3.76522
head 10.1228 -1.60306 2.59821
rclavicle 3.06625e-014 -1.35174e-014
rhumerus -35.8919 -21.1078 -75.3028
rradius 25.3144
rwrist 13.2688
rhand -16.4353 14.5632
rfingers 7.12502
rthumb 9.78024 -15.1897
lclavicle 3.06625e-014 -1.35174e-014
lhumerus -22.722 3.89897 86.2654
lradius 28.9121
lwrist -5.4523
lhand -16.0698 28.8735
lfingers 7.12502
lthumb 10.1328 58.6095
rfemur -29.9443 -3.7934 14.9956
rtibia 48.0004
rfoot -5.89215 -13.4891
rtoes -0.453013
lfemur -3.87662 0.193802 -30.9003
ltibia 27.2628
lfoot -16.521 1.00828
ltoes 3.5507
130
root 0.864679 17.3506 -10.8888 -1.08634 2.24627 5.7405
lowerback 5.76923 -1.02856 -6.25481
upperback 0.671065 -1.73668 1.06798
thorax -2.32297 -0.806457 4.75523
lowerneck -15.1905 -2.93529 -9.70396
upperneck 23.4115 -2.55535 3.80492
head 10.1674 -1.60335 2.63696
rclavicle 2.15184e-014 -7.95139e-016
rhumerus -36.2262 -21.33 -74.9667
rradius 25.067
rwrist 13.8198
rhand -16.4245 15.1061
rfingers 7.12502
rthumb 9.79065 -14.6463
lclavicle 2.15184e-014 -7.95139e-016
lhumerus -22.5954 4.23342 86.1436
lradius 29.3454
lwrist -6.4348
lhand -15.4528 28.9151
lfingers 7.12502
lthumb 10.728 58.6212
rfemur -29.8653 -3.49255 14.825
rtibia 44.7839
rfoot -6.05456 -13.6937
rtoes 2.08776
lfemur -3.45441 0.420783 -31.0133
ltibia 26.9025
lfoot -16.6737 0.95539
ltoes 3.69903
131
root 0.854862 17.3521 -10.753 -0.839612 2.39001 6.01147
lowerback 5.48134 -1.12883 -6.55011
upperback 0.655043 -1.8699 1.04574
thorax -2.15258 -0.876239 4.89923
lowerneck -15.5576 -2.86491 -9.88719
upperneck 23.6418 -2.41187 3.96945
head 10.3145 -1.53616 2.74768
rclavicle -3.62782e-015 1.90833e-014
rhumerus -36.6199 -20.9417 -75.0632
rradius 25.3273
rwrist 12.9109
rhand -16.5441 15.134
rfingers 7.12502
rthumb 9.67519 -14.6238
lclavicle -3.62782e-015 1.90833e-014
lhumerus -22.2829 4.64852 85.9936
lradius 29.7054
lwrist -7.68853
lhand -14.2524 29.6842
lfingers 7.12502
lthumb 11.8857 59.3269
rfemur -29.7103 -3.24948 14.4953
rtibia 41.4545
rfoot -5.0948 -13.6012
rtoes 1.13627
lfemur -2.96983 0.621404 -31.2533
ltibia 26.5637
lfoot -16.8938 0.928533
ltoes 2.96664
132
root 0.849052 17.3556 -10.6176 -0.64353 2.4601 6.16622
lowerback 5.35774 -1.18922 -6.69648
upperback 0.523099 -1.95502 1.0191
thorax -2.20524 -0.912056 4.95811
lowerneck -15.3894 -2.80019 -9.92541
upperneck 23.6719 -2.35955 4.08306
head 10.2901 -1.50455 2.80331
rclavicle 8.54774e-015 1.43125e-014
rhumerus -37.052 -20.9243 -74.9218
rradius 25.1592
rwrist 12.7141
rhand -16.6893 15.5067
rfingers 7.12502
rthumb 9.53516 -14.2576
lclavicle 8.54774e-015 1.43125e-014
lhumerus -22.1987 4.5135 85.8993
lradius 30.0601
lwrist -7.79748
lhand -13.606 30.641
lfingers 7.12502
lthumb 12.509 60.2466
rfemur -29.3973 -2.83614 14.2247
rtibia 38.0186
rfoot -4.02512 -13.3061
rtoes 0.860254
lfemur -2.43933 0.777893 -31.383
ltibia 26.2482
lfoot -17.1267 1.01029
ltoes 1.81411
133
root 0.839971 17.3491 -10.4826 -0.438993 2.37756 6.07804
lowerback 5.26166 -1.14992 -6.59194
upperback 0.356522 -1.89479 1.01978
thorax -2.33594 -0.873661 4.8962
lowerneck -15.1639 -2.8048 -9.82023
upperneck 23.6486 -2.41362 4.06194
head 10.2404 -1.52403 2.77134
rclavicle 3.76697e-014 0
rhumerus -37.3683 -21.4098 -74.5756
rradius 24.6453
rwrist 13.2895
rhand -16.8563 15.95
rfingers 7.12502
rthumb 9.37404 -13.8216
lclavicle 3.76697e-014 0
lhumerus -22.2094 4.1801 85.8254
lradius 30.3776
lwrist -7.708
lhand -14.7985 29.3722
lfingers 7.12502
lthumb 11.3591 59.0445
rfemur -28.9842 -2.02879 14.1722
rtibia 34.5568
rfoot -2.96064 -13.0328
rtoes 0.195309
lfemur -1.90127 0.709873 -31.2645
ltibia 25.8293
lfoot -17.2321 1.13889
ltoes 2.06391
134
root 0.827554 17.3393 -10.3477 -0.196953 2.52346 6.12027
lowerback 5.13917 -1.20596 -6.62609
upperback 0.311174 -1.96452 1.00532
thorax -2.30448 -0.908127 4.90163
lowerneck -15.6154 -2.84622 -9.75913
upperneck 23.8504 -2.43215 4.02678
head 10.4006 -1.5312 2.74708
rclavicle -3.03147e-015 -5.56597e-015
rhumerus -37.4698 -21.7619 -74.4121
rradius 24.3697
rwrist 13.5419
rhand -16.9225 15.9445
rfingers 7.12502
rthumb 9.31014 -13.8299
lclavicle -3.03147e-015 -5.56597e-015
lhumerus -22.008 4.06045 85.766
lradius 30.6906
lwrist -7.74493
lhand -15.6279 28.5439
lfingers 7.12502
lthumb 10.5591 58.2587
rfemur -28.639 -1.26696 13.9246
rtibia 31.186
rfoot -1.81741 -13.0859
rtoes -1.50617
lfemur -1.32709 0.684814 -31.23
ltibia 25.2737
lfoot -17.0495 0.942065
ltoes 3.2791
135
root 0.81502 17.3484 -10.2137 0.0906761 2.82788 6.35553
lowerback 4.93505 -1.34151 -6.96015
upperback 0.232442 -2.15127 1.02783
thorax -2.23408 -0.998412 5.11965
lowerneck -15.595 -2.85093 -9.85428
upperneck 23.6756 -2.41702 4.042
head 10.3339 -1.52765 2.76798
rclavicle 1.1778e-014 -1.66979e-014
rhumerus -37.7677 -21.7266 -74.2323
rradius 24.3149
rwrist 13.3442
rhand -16.8969 16.5219
rfingers 7.12502
rthumb 9.33485 -13.2515
lclavicle 1.1778e-014 -1.66979e-014
lhumerus -21.8774 4.02859 85.8142
lradius 31.1077
lwrist -7.47215
lhand -14.054 30.5479
lfingers 7.12502
lthumb 12.0771 60.1794
rfemur -28.4408 -0.535289 13.3763
rtibia 28.0068
rfoot -0.524115 -13.1827
rtoes -3.64659
lfemur -0.815358 0.723958 -31.3396
ltibia 24.5825
lfoot -16.4225 0.41872
ltoes 6.03318
